<?xml version="1.0" encoding="UTF-8" standalone="no" ?>
<!DOCTYPE svg PUBLIC "-//W3C//DTD SVG 1.1//EN" "http://www.w3.org/Graphics/SVG/1.1/DTD/svg11.dtd">
<svg xmlns="http://www.w3.org/2000/svg" xmlns:xlink="http://www.w3.org/1999/xlink" version="1.1" width="1080" height="1080" viewBox="0 0 1080 1080" xml:space="preserve">
<desc>Created with Fabric.js 5.2.4</desc>
<defs>
</defs>
<g transform="matrix(1 0 0 1 540 540)" id="47476a15-b094-471d-b916-b327d17281a6"  >
<rect style="stroke: none; stroke-width: 1; stroke-dasharray: none; stroke-linecap: butt; stroke-dashoffset: 0; stroke-linejoin: miter; stroke-miterlimit: 4; fill: rgb(255,255,255); fill-rule: nonzero; opacity: 1; visibility: hidden;" vector-effect="non-scaling-stroke"  x="-540" y="-540" rx="0" ry="0" width="1080" height="1080" />
</g>
<g transform="matrix(1 0 0 1 540 540)" id="bf6ca542-f9e6-418f-a618-41a7ae83914a"  >
</g>
<g transform="matrix(1 0 0 1 540 540)"  >
<rect style="stroke: none; stroke-width: 1; stroke-dasharray: none; stroke-linecap: butt; stroke-dashoffset: 0; stroke-linejoin: miter; stroke-miterlimit: 4; fill: rgb(255,255,255); fill-rule: nonzero; opacity: 1; visibility: hidden;" vector-effect="non-scaling-stroke"  x="-540" y="-540" rx="0" ry="0" width="1080" height="1080" />
</g>
<g transform="matrix(1 0 0 1 290 290)"  >
<rect style="stroke: none; stroke-width: 1; stroke-dasharray: none; stroke-linecap: butt; stroke-dashoffset: 0; stroke-linejoin: miter; stroke-miterlimit: 4; fill: rgb(255,255,255); fill-opacity: 0; fill-rule: nonzero; opacity: 1;" vector-effect="non-scaling-stroke"  x="-50" y="-50" rx="0" ry="0" width="100" height="100" />
</g>
<g transform="matrix(1 0 0 1 540 540)"  >
<rect style="stroke: none; stroke-width: 1; stroke-dasharray: none; stroke-linecap: butt; stroke-dashoffset: 0; stroke-linejoin: miter; stroke-miterlimit: 4; fill: rgb(255,255,255); fill-rule: nonzero; opacity: 1; visibility: hidden;" vector-effect="non-scaling-stroke"  x="-300" y="-300" rx="0" ry="0" width="600" height="600" />
</g>
<g transform="matrix(1.13 0 0 1.13 538.66 539.05)"  >
<path style="stroke: none; stroke-width: 1; stroke-dasharray: none; stroke-linecap: butt; stroke-dashoffset: 0; stroke-linejoin: miter; stroke-miterlimit: 4; fill: rgb(34,51,84); fill-rule: nonzero; opacity: 1;" vector-effect="non-scaling-stroke"  transform=" translate(-192, -204.8)" d="M 294.4 51.2 L 243.2 51.2 C 243.2 22.923020808663377 220.2769791913366 0 192 0 C 163.72302080866336 0 140.79999999999998 22.92302080866337 140.79999999999998 51.199999999999996 L 89.6 51.2 C 61.32302080866337 51.2 38.39999999999999 74.12302080866338 38.39999999999999 102.4 L 38.39999999999999 256 C 38.39999999999999 340.83093757400985 107.16906242599012 409.6 192 409.6 C 276.83093757400985 409.6 345.59999999999997 340.83093757400985 345.59999999999997 256 L 345.59999999999997 102.4 C 345.59999999999997 74.12302080866338 322.6769791913366 51.2 294.4 51.2 Z M 192 25.6 C 206.13163637273038 25.616531469141595 217.5834685308584 37.06836362726961 217.6 51.2 L 166.4 51.2 C 166.4165314691416 37.06836362726962 177.86836362726962 25.616531469141602 192 25.6 Z" stroke-linecap="round" />
</g>
<g transform="matrix(1.13 0 0 1.13 538.66 634.66)"  >
<path style="stroke: none; stroke-width: 1; stroke-dasharray: none; stroke-linecap: butt; stroke-dashoffset: 0; stroke-linejoin: miter; stroke-miterlimit: 4; fill: rgb(232,240,255); fill-rule: nonzero; opacity: 1;" vector-effect="non-scaling-stroke"  transform=" translate(-192, -288)" d="M 38.4 166.4 L 38.4 256 C 38.4 340.83093757400985 107.16906242599012 409.6 192 409.6 L 192 409.6 C 232.73725283935397 409.6 271.8060138606356 393.41718931987185 300.6116015902537 364.6116015902537 C 329.41718931987185 335.8060138606356 345.6 296.7372528393539 345.6 255.99999999999997 L 345.6 166.4 Z" stroke-linecap="round" />
</g>
<g transform="matrix(1.25 0 0 0.78 505.44 587.23)"  >
<rect style="stroke: none; stroke-width: 1; stroke-dasharray: none; stroke-linecap: butt; stroke-dashoffset: 0; stroke-linejoin: miter; stroke-miterlimit: 4; fill: rgb(141,180,255); fill-rule: nonzero; opacity: 1;" vector-effect="non-scaling-stroke"  x="-89.6" y="-89.6" rx="32" ry="32" width="179.2" height="179.2" />
</g>
<g transform="matrix(1.04 0 0 0.8 557.38 552.44)"  >
<path style="stroke: none; stroke-width: 1; stroke-dasharray: none; stroke-linecap: butt; stroke-dashoffset: 0; stroke-linejoin: miter; stroke-miterlimit: 4; fill: rgb(34,51,84); fill-rule: nonzero; opacity: 1;" vector-effect="non-scaling-stroke"  transform=" translate(-192, -179.2)" d="M 217.6 192 L 166.4 192 C 159.33075534470817 191.99999979841473 153.60000036500242 186.26924465529186 153.60000036500242 179.2 C 153.60000036500242 172.13075534470815 159.33075534470817 166.40000020158527 166.4 166.4 L 217.60000000000002 166.4 C 222.17299963775972 166.3999998695972 226.39862561608564 168.83966605856975 228.6851254726095 172.7999998946329 C 230.97162532913342 176.760333730696 230.97162532913342 181.639666269304 228.6851254726095 185.60000010536714 C 226.3986256160856 189.56033394143026 222.1729996377597 192.0000001304028 217.6 192 Z" stroke-linecap="round" />
</g>
<g transform="matrix(1.04 0 0 0.8 556.71 618.63)"  >
<path style="stroke: none; stroke-width: 1; stroke-dasharray: none; stroke-linecap: butt; stroke-dashoffset: 0; stroke-linejoin: miter; stroke-miterlimit: 4; fill: rgb(34,51,84); fill-rule: nonzero; opacity: 1;" vector-effect="non-scaling-stroke"  transform=" translate(-192, -230.4)" d="M 217.6 243.2 L 166.4 243.2 C 159.33075534470817 243.19999979841472 153.60000036500242 237.46924465529185 153.60000036500242 230.39999999999998 C 153.60000036500242 223.33075534470814 159.33075534470817 217.60000020158526 166.4 217.6 L 217.60000000000002 217.6 C 222.17299963775972 217.59999986959718 226.39862561608564 220.03966605856974 228.6851254726095 223.99999989463288 C 230.97162532913342 227.960333730696 230.97162532913342 232.839666269304 228.6851254726095 236.80000010536713 C 226.3986256160856 240.76033394143025 222.1729996377597 243.2000001304028 217.6 243.2 Z" stroke-linecap="round" />
</g>
<g transform="matrix(0.96 0 0 1.13 627.55 564.27)"  >
<path style="stroke: none; stroke-width: 1; stroke-dasharray: none; stroke-linecap: butt; stroke-dashoffset: 0; stroke-linejoin: miter; stroke-miterlimit: 4; fill: rgb(23,41,45); fill-rule: nonzero; opacity: 0.12;" vector-effect="non-scaling-stroke"  transform=" translate(-255.44, -230.4)" d="M 345.34 97.17 C 344.31801819723904 87.12975039130086 340.3401754053581 77.61842550047797 333.90999999999997 69.84000000000003 Q 332.34999999999997 67.94 330.60999999999996 66.2 C 328.27929404230383 63.87484583965147 325.7309608749691 61.778582288072585 323 59.94 C 314.5542101550311 54.234220186351145 304.59250651078736 51.189979282480856 294.4 51.199999999999996 L 217.6 51.2 C 231.17908427978466 51.2 244.20200462021185 56.59427022670939 253.80386719675124 66.19613280324876 C 263.4057297732906 75.79799537978815 268.8 88.82091572021534 268.8 102.39999999999999 L 268.8 281.6 C 268.7955772739844 342.8543110523933 225.39457208203942 395.5198986334234 165.26999999999998 407.23 C 209.99280172317424 415.17642410929676 255.93830224192664 402.9044981782732 290.74261703480647 373.7165842087328 C 325.54693182768636 344.52867023919237 345.6345810458861 301.42326996426436 345.6 256.00000000000006 L 345.6 102.4 C 345.6015789066504 100.65339777389998 345.5148013477409 98.90783380045151 345.34 97.17 Z" stroke-linecap="round" />
</g>
<g transform="matrix(1.04 0 0 0.8 558.59 585.75)"  >
<path style="stroke: none; stroke-width: 1; stroke-dasharray: none; stroke-linecap: butt; stroke-dashoffset: 0; stroke-linejoin: miter; stroke-miterlimit: 4; fill: rgb(34,51,84); fill-rule: nonzero; opacity: 1;" vector-effect="non-scaling-stroke"  transform=" translate(-192, -230.4)" d="M 217.6 243.2 L 166.4 243.2 C 159.33075534470817 243.19999979841472 153.60000036500242 237.46924465529185 153.60000036500242 230.39999999999998 C 153.60000036500242 223.33075534470814 159.33075534470817 217.60000020158526 166.4 217.6 L 217.60000000000002 217.6 C 222.17299963775972 217.59999986959718 226.39862561608564 220.03966605856974 228.6851254726095 223.99999989463288 C 230.97162532913342 227.960333730696 230.97162532913342 232.839666269304 228.6851254726095 236.80000010536713 C 226.3986256160856 240.76033394143025 222.1729996377597 243.2000001304028 217.6 243.2 Z" stroke-linecap="round" />
</g>
<g transform="matrix(1.54 0 0 1.54 459.05 581.79)"  >
<circle style="stroke: none; stroke-width: 1; stroke-dasharray: none; stroke-linecap: butt; stroke-dashoffset: 0; stroke-linejoin: miter; stroke-miterlimit: 4; fill: rgb(79,93,115); fill-rule: nonzero; opacity: 1;" vector-effect="non-scaling-stroke"  cx="0" cy="0" r="32" />
</g>
<g transform="matrix(1.54 0 0 1.54 477.84 592.57)"  >
<circle style="stroke: none; stroke-width: 1; stroke-dasharray: none; stroke-linecap: butt; stroke-dashoffset: 0; stroke-linejoin: miter; stroke-miterlimit: 4; fill: rgb(35,31,32); fill-rule: nonzero; opacity: 0.2;" vector-effect="non-scaling-stroke"  cx="0" cy="0" r="2" />
</g>
<g transform="matrix(1.54 0 0 1.54 477.84 611.05)"  >
<circle style="stroke: none; stroke-width: 1; stroke-dasharray: none; stroke-linecap: butt; stroke-dashoffset: 0; stroke-linejoin: miter; stroke-miterlimit: 4; fill: rgb(35,31,32); fill-rule: nonzero; opacity: 0.2;" vector-effect="non-scaling-stroke"  cx="0" cy="0" r="2" />
</g>
<g transform="matrix(1.54 0 0 1.54 440.88 569.47)"  >
<path style="stroke: none; stroke-width: 1; stroke-dasharray: none; stroke-linecap: butt; stroke-dashoffset: 0; stroke-linejoin: miter; stroke-miterlimit: 4; fill: rgb(35,31,32); fill-rule: nonzero; opacity: 0.2;" vector-effect="non-scaling-stroke"  transform=" translate(-20, -24)" d="M 26 22 L 22 22 L 22 18 C 22 16.9 21.1 16 20 16 C 18.9 16 18 16.9 18 18 L 18 22 L 14 22 C 12.9 22 12 22.9 12 24 C 12 25.1 12.9 26 14 26 L 18 26 L 18 30 C 18 31.1 18.9 32 20 32 C 21.1 32 22 31.1 22 30 L 22 26 L 26 26 C 27.1 26 28 25.1 28 24 C 28 22.9 27.1 22 26 22 z" stroke-linecap="round" />
</g>
<g transform="matrix(1.54 0 0 1.54 477.84 569.47)"  >
<path style="stroke: none; stroke-width: 1; stroke-dasharray: none; stroke-linecap: butt; stroke-dashoffset: 0; stroke-linejoin: miter; stroke-miterlimit: 4; fill: rgb(35,31,32); fill-rule: nonzero; opacity: 0.2;" vector-effect="non-scaling-stroke"  transform=" translate(-44, -24)" d="M 38 26 L 50 26 C 51.1 26 52 25.1 52 24 C 52 22.9 51.1 22 50 22 L 38 22 C 36.9 22 36 22.9 36 24 C 36 25.1 36.9 26 38 26 z" stroke-linecap="round" />
</g>
<g transform="matrix(1.54 0 0 1.54 477.84 601.81)"  >
<path style="stroke: none; stroke-width: 1; stroke-dasharray: none; stroke-linecap: butt; stroke-dashoffset: 0; stroke-linejoin: miter; stroke-miterlimit: 4; fill: rgb(35,31,32); fill-rule: nonzero; opacity: 0.2;" vector-effect="non-scaling-stroke"  transform=" translate(-44, -45)" d="M 50 43 L 38 43 C 36.9 43 36 43.9 36 45 C 36 46.1 36.9 47 38 47 L 50 47 C 51.1 47 52 46.1 52 45 C 52 43.9 51.1 43 50 43 z" stroke-linecap="round" />
</g>
<g transform="matrix(1.54 0 0 1.54 440.88 603.35)"  >
<path style="stroke: none; stroke-width: 1; stroke-dasharray: none; stroke-linecap: butt; stroke-dashoffset: 0; stroke-linejoin: miter; stroke-miterlimit: 4; fill: rgb(35,31,32); fill-rule: nonzero; opacity: 0.2;" vector-effect="non-scaling-stroke"  transform=" translate(-20, -46)" d="M 26.8 39.2 C 26 38.400000000000006 24.8 38.400000000000006 24 39.2 L 20 43.2 L 16 39.2 C 15.2 38.400000000000006 14 38.400000000000006 13.2 39.2 C 12.399999999999999 40 12.399999999999999 41.2 13.2 42 L 17.2 46 L 13.2 50 C 12.399999999999999 50.8 12.399999999999999 52 13.2 52.8 C 14 53.599999999999994 15.2 53.599999999999994 16 52.8 L 20 48.8 L 24 52.8 C 24.8 53.599999999999994 26 53.599999999999994 26.8 52.8 C 27.6 52 27.6 50.8 26.8 50 L 22.8 46 L 26.8 42 C 27.6 41.2 27.6 40 26.8 39.2 z" stroke-linecap="round" />
</g>
<g transform="matrix(1.54 0 0 1.54 477.84 589.49)"  >
<circle style="stroke: none; stroke-width: 1; stroke-dasharray: none; stroke-linecap: butt; stroke-dashoffset: 0; stroke-linejoin: miter; stroke-miterlimit: 4; fill: rgb(232,240,255); fill-rule: nonzero; opacity: 1;" vector-effect="non-scaling-stroke"  cx="0" cy="0" r="2" />
</g>
<g transform="matrix(1.54 0 0 1.54 477.84 607.97)"  >
<circle style="stroke: none; stroke-width: 1; stroke-dasharray: none; stroke-linecap: butt; stroke-dashoffset: 0; stroke-linejoin: miter; stroke-miterlimit: 4; fill: rgb(232,240,255); fill-rule: nonzero; opacity: 1;" vector-effect="non-scaling-stroke"  cx="0" cy="0" r="2" />
</g>
<g transform="matrix(1.54 0 0 1.54 440.88 566.39)"  >
<path style="stroke: none; stroke-width: 1; stroke-dasharray: none; stroke-linecap: butt; stroke-dashoffset: 0; stroke-linejoin: miter; stroke-miterlimit: 4; fill: rgb(245,207,135); fill-rule: nonzero; opacity: 1;" vector-effect="non-scaling-stroke"  transform=" translate(-20, -22)" d="M 28 22 C 28 23.1 27.1 24 26 24 L 14 24 C 12.9 24 12 23.1 12 22 L 12 22 C 12 20.9 12.9 20 14 20 L 26 20 C 27.1 20 28 20.9 28 22 L 28 22 z" stroke-linecap="round" />
</g>
<g transform="matrix(1.54 0 0 1.54 477.84 566.39)"  >
<path style="stroke: none; stroke-width: 1; stroke-dasharray: none; stroke-linecap: butt; stroke-dashoffset: 0; stroke-linejoin: miter; stroke-miterlimit: 4; fill: rgb(224,153,94); fill-rule: nonzero; opacity: 1;" vector-effect="non-scaling-stroke"  transform=" translate(-44, -22)" d="M 52 22 C 52 23.1 51.1 24 50 24 L 38 24 C 36.9 24 36 23.1 36 22 L 36 22 C 36 20.9 36.9 20 38 20 L 50 20 C 51.1 20 52 20.9 52 22 L 52 22 z" stroke-linecap="round" />
</g>
<g transform="matrix(1.54 0 0 1.54 440.88 566.39)"  >
<path style="stroke: none; stroke-width: 1; stroke-dasharray: none; stroke-linecap: butt; stroke-dashoffset: 0; stroke-linejoin: miter; stroke-miterlimit: 4; fill: rgb(245,207,135); fill-rule: nonzero; opacity: 1;" vector-effect="non-scaling-stroke"  transform=" translate(-20, -22)" d="M 20 30 C 18.9 30 18 29.1 18 28 L 18 16 C 18 14.9 18.9 14 20 14 L 20 14 C 21.1 14 22 14.9 22 16 L 22 28 C 22 29.1 21.1 30 20 30 L 20 30 z" stroke-linecap="round" />
</g>
<g transform="matrix(1.54 0 0 1.54 477.84 598.73)"  >
<path style="stroke: none; stroke-width: 1; stroke-dasharray: none; stroke-linecap: butt; stroke-dashoffset: 0; stroke-linejoin: miter; stroke-miterlimit: 4; fill: rgb(232,240,255); fill-rule: nonzero; opacity: 1;" vector-effect="non-scaling-stroke"  transform=" translate(-44, -43)" d="M 52 43 C 52 44.1 51.1 45 50 45 L 38 45 C 36.9 45 36 44.1 36 43 L 36 43 C 36 41.9 36.9 41 38 41 L 50 41 C 51.1 41 52 41.9 52 43 L 52 43 z" stroke-linecap="round" />
</g>
<g transform="matrix(1.54 0 0 1.54 440.88 600.27)"  >
<path style="stroke: none; stroke-width: 1; stroke-dasharray: none; stroke-linecap: butt; stroke-dashoffset: 0; stroke-linejoin: miter; stroke-miterlimit: 4; fill: rgb(30,176,0); fill-rule: nonzero; opacity: 1;" vector-effect="non-scaling-stroke"  transform=" translate(-20, -44)" d="M 26.8 50.8 C 26 51.599999999999994 24.8 51.599999999999994 24 50.8 L 13.2 40 C 12.399999999999999 39.2 12.399999999999999 38 13.2 37.2 L 13.2 37.2 C 14 36.400000000000006 15.2 36.400000000000006 16 37.2 L 26.8 48 C 27.6 48.8 27.6 50 26.8 50.8 L 26.8 50.8 z" stroke-linecap="round" />
</g>
<g transform="matrix(1.54 0 0 1.54 440.05 600.27)"  >
<path style="stroke: none; stroke-width: 1; stroke-dasharray: none; stroke-linecap: butt; stroke-dashoffset: 0; stroke-linejoin: miter; stroke-miterlimit: 4; fill: rgb(30,176,0); fill-rule: nonzero; opacity: 1;" vector-effect="non-scaling-stroke"  transform=" translate(-20, -44)" d="M 13.2 50.8 C 12.399999999999999 50 12.399999999999999 48.8 13.2 48 L 24 37.2 C 24.8 36.400000000000006 26 36.400000000000006 26.8 37.2 L 26.8 37.2 C 27.6 38 27.6 39.2 26.8 40 L 16 50.8 C 15.2 51.6 14 51.6 13.2 50.8 L 13.2 50.8 z" stroke-linecap="round" />
</g>
</svg>